<svg width="21" height="22" viewBox="0 0 21 22" fill="none" xmlns="http://www.w3.org/2000/svg">
<path fill-rule="evenodd" clip-rule="evenodd" d="M10.4004 0.250027L10.2267 0.250013C8.06114 0.249754 6.77655 0.2496 5.69324 0.628491C3.98874 1.22464 2.59417 2.47889 1.82127 4.11085C1.33004 5.14807 1.19447 6.42549 0.965926 8.57896L0.947585 8.75171L0.711174 10.9768L0.708044 11.0062C0.548605 12.5068 0.424726 13.6727 0.391682 14.6135C0.358217 15.5663 0.414304 16.3499 0.64849 17.0749C1.23818 18.9004 2.5768 20.3888 4.32983 21.1681C5.02601 21.4775 5.79927 21.6161 6.75027 21.6835C7.68931 21.75 8.86176 21.75 10.3708 21.75H10.4004H10.4301C11.9391 21.75 13.1115 21.75 14.0506 21.6835C15.0016 21.6161 15.7748 21.4775 16.471 21.1681C18.224 20.3888 19.5627 18.9004 20.1524 17.0749C20.3865 16.3499 20.4426 15.5663 20.4092 14.6135C20.3761 13.6727 20.2522 12.5069 20.0928 11.0064L20.0928 11.0062L20.0897 10.9768L19.8533 8.75171L19.8349 8.57895C19.6064 6.42549 19.4708 5.14807 18.9796 4.11085C18.2067 2.47889 16.8121 1.22464 15.1076 0.628491C14.0243 0.2496 12.7397 0.249754 10.5741 0.250013L10.4004 0.250027ZM6.18845 2.04439C7.0002 1.76048 8.00797 1.75003 10.4004 1.75003C12.7929 1.75003 13.8006 1.76048 14.6124 2.04439C15.9381 2.50806 17.0228 3.48358 17.6239 4.75289C17.992 5.5301 18.1089 6.53113 18.3617 8.91019L18.5981 11.1352C18.7613 12.6714 18.8791 13.7847 18.9101 14.6662C18.9408 15.5418 18.8822 16.1269 18.725 16.6138C18.2663 18.0337 17.2252 19.1913 15.8617 19.7974C15.3942 20.0052 14.8186 20.1253 13.9445 20.1872C13.0647 20.2496 11.9453 20.25 10.4004 20.25C8.85558 20.25 7.73612 20.2496 6.8563 20.1872C5.98229 20.1253 5.40666 20.0052 4.93913 19.7974C3.57567 19.1913 2.53452 18.0337 2.07587 16.6138C1.9186 16.1269 1.86 15.5418 1.89076 14.6662C1.92172 13.7847 2.03956 12.6714 2.20278 11.1352L2.43919 8.91019C2.69196 6.53113 2.80883 5.5301 3.17692 4.75289C3.77807 3.48358 4.86273 2.50806 6.18845 2.04439ZM8.15054 8.00003C8.15054 9.24267 9.1579 10.25 10.4005 10.25C11.6432 10.25 12.6505 9.24267 12.6505 8.00003V6.00003C12.6505 5.58581 12.9863 5.25003 13.4005 5.25003C13.8148 5.25003 14.1505 5.58581 14.1505 6.00003V8.00003C14.1505 10.0711 12.4716 11.75 10.4005 11.75C8.32948 11.75 6.65054 10.0711 6.65054 8.00003V6.00003C6.65054 5.58581 6.98633 5.25003 7.40054 5.25003C7.81476 5.25003 8.15054 5.58581 8.15054 6.00003V8.00003Z" fill="#6D6D6D"/>
</svg>
