<svg width="12" height="13" viewBox="0 0 12 13" fill="none" xmlns="http://www.w3.org/2000/svg">
<path fill-rule="evenodd" clip-rule="evenodd" d="M7.41409 6.315L11.6571 2.072C12.0481 1.681 12.0481 1.048 11.6571 0.657996C11.2671 0.266996 10.6341 0.266996 10.2431 0.657996L6.00009 4.901L1.75709 0.657996C1.36609 0.266996 0.733085 0.266996 0.343085 0.657996C-0.0479148 1.048 -0.0479148 1.681 0.343085 2.072L4.58609 6.315L0.343085 10.558C-0.0479148 10.949 -0.0479148 11.582 0.343085 11.972C0.538085 12.168 0.794085 12.265 1.05009 12.265C1.30609 12.265 1.56109 12.168 1.75709 11.972L6.00009 7.729L10.2431 11.972C10.4381 12.168 10.6941 12.265 10.9501 12.265C11.2061 12.265 11.4621 12.168 11.6571 11.972C12.0481 11.582 12.0481 10.949 11.6571 10.558L7.41409 6.315Z" fill="#4D4D4D"/>
</svg>
